<svg width="401" height="48" viewBox="0 0 401 48" fill="none" xmlns="http://www.w3.org/2000/svg">
<path d="M296.731 13.1908L296.165 12.6252C295.808 12.268 295.421 12.0596 295.064 12.0596C294.706 12.0596 294.319 12.2382 294.141 12.4169C293.784 12.5955 293.784 12.9825 293.784 13.1611C293.784 13.5183 293.784 13.9053 294.141 14.2625C294.885 14.8281 295.421 15.5425 296.165 16.4653L287.86 16.8226C292.295 12.2085 294.319 9.61863 294.319 8.69581C294.141 8.33859 293.962 8.13021 293.754 7.77299H292.831C292.474 7.9516 292.087 8.13021 291.908 8.33859C291.343 9.11257 290.807 9.85678 290.241 10.5712C289.05 12.0596 287.8 13.429 286.58 14.7983C285.835 15.5425 285.3 16.2867 284.555 17.0012L277.917 17.1798L274.583 17.3584C274.017 17.3584 273.66 17.537 273.482 17.7156C273.303 17.8942 273.124 18.2812 273.303 18.6384C273.303 18.9957 273.303 19.3826 273.482 19.5613C273.839 19.7399 274.226 19.7399 274.583 19.7399L286.193 19.1743V28.9383C286.193 29.2955 286.193 29.5039 286.55 29.8611C286.729 30.0397 287.116 30.2183 287.473 30.2183C287.651 30.2183 288.038 30.0397 288.217 29.8611C288.574 29.6825 288.783 29.2955 288.783 28.9383V18.9659L296.701 18.6087L297.624 18.4301C298.189 19.1743 298.547 19.9185 298.904 20.4543C299.082 20.8115 299.469 21.1985 299.827 21.1985C300.005 21.3771 300.392 21.3771 300.749 21.0199C301.107 20.8413 301.315 20.6627 301.494 20.2757C301.494 19.9185 301.315 19.7101 301.136 19.3529C299.648 16.763 298.011 14.7388 296.701 13.0718L296.731 13.1908Z" fill="#333333"/>
<path d="M296.73 22.5977C295.45 21.3176 294.528 20.5734 293.962 20.5734C293.783 20.5734 293.396 20.5734 293.218 20.9306C292.861 21.2879 292.861 21.4962 292.861 21.8535C292.861 22.2107 293.039 22.4191 293.218 22.5977C294.081 23.461 294.974 24.4731 295.927 25.5745C296.344 26.0806 296.73 26.6462 297.147 27.2415C297.385 27.6285 297.653 28.0453 297.981 28.4918C298.338 28.6704 298.546 29.0574 298.904 29.0574C299.261 29.0574 299.648 29.0574 299.826 28.8788C300.184 28.5216 300.392 28.3132 300.392 27.956C300.392 27.5988 300.392 27.2118 300.213 27.0332C298.933 25.0089 297.624 23.5205 296.701 22.5977H296.73Z" fill="#333333"/>
<path d="M268.332 14.4707H263.153L263.897 11.5236H266.844C267.201 11.5236 267.588 11.5236 267.767 11.1664C267.767 10.9878 267.945 10.8092 267.945 10.4222C267.945 10.0352 267.945 9.85662 267.767 9.4994C267.588 9.4994 267.201 9.32079 266.844 9.32079H243.595C243.238 9.32079 242.851 9.32079 242.672 9.67801C242.106 10.0352 241.749 10.7794 242.493 11.345C242.672 11.5236 243.238 11.5236 243.595 11.5236H246.929L247.495 14.4707H242.315C241.958 14.4707 241.571 15.0363 241.392 15.2149C241.213 15.5721 241.213 15.7805 241.213 16.1377C241.213 16.495 241.213 16.7033 241.392 16.8819C241.571 17.0606 241.958 16.7033 242.315 16.7033H248.03L248.596 19.4718H243.625C243.059 19.4718 242.702 19.4718 242.702 19.829C242.523 20.0076 242.345 20.1862 242.345 20.5732C242.345 20.9602 242.523 21.1388 242.702 21.3174C242.88 21.496 243.267 21.6746 243.625 21.6746H253.954V23.8775H242.702C242.136 23.8775 241.779 24.0561 241.6 24.2347C241.6 24.4133 241.422 25.3361 241.422 25.7231C241.422 25.9017 241.422 25.7231 241.6 25.9017C241.958 26.0804 242.166 26.259 242.702 26.259H253.954V29.8312H256.544V26.259H267.975C268.332 26.259 268.541 26.0804 268.898 25.9017C268.898 25.7231 269.077 25.3361 269.077 25.1575C269.077 24.8003 268.898 24.4133 268.898 24.2347C268.541 24.0561 268.332 23.8775 267.975 23.8775H256.544V21.6746H266.874C267.052 21.6746 267.439 21.496 267.618 21.3174C267.797 21.1388 267.797 20.9602 267.797 20.5732C267.975 20.216 267.797 20.0076 267.618 19.6504C267.439 19.6504 267.052 19.4718 266.874 19.4718H262.081L262.647 16.7033H268.362C268.719 16.7033 268.928 16.5247 269.285 16.3461C269.285 16.1675 269.464 15.7805 269.464 15.6019C269.464 15.2447 269.285 14.8577 269.285 14.6791C268.928 14.5005 268.719 14.5005 268.362 14.5005L268.332 14.4707ZM249.519 11.5236H253.954V14.4707H250.084L249.519 11.5236ZM252.287 19.442H251.364L250.62 16.6736H253.954V19.442H252.287ZM259.491 19.442H256.544V16.6736H260.057L259.491 19.442ZM260.593 14.4707H256.544V11.5236H261.158L260.593 14.4707Z" fill="#333333"/>
<path d="M224.066 6.73105V3.03978H221.119V6.73105H210.045V23.5204H221.119V29.8015H224.066V23.5204H235.318V6.73105H224.066ZM221.119 20.9305H213.2V9.3209H221.119V20.9305ZM232.371 20.9305H224.066V9.3209H232.371V20.9305Z" fill="#333333"/>
<path d="M242.135 6.90971H248.595C248.595 7.65391 248.773 8.01113 248.952 8.18974C249.309 8.54696 249.518 8.54696 249.875 8.54696C250.232 8.54696 250.619 8.54696 250.798 8.18974C250.976 8.01113 251.155 7.62415 251.155 6.90971H259.46C259.46 7.65391 259.46 8.01113 259.817 8.18974C259.996 8.54696 260.383 8.54696 260.74 8.54696C261.097 8.54696 261.306 8.54696 261.484 8.18974C261.842 8.01113 262.05 7.62415 262.05 6.90971H268.123C268.48 6.90971 268.867 6.7311 269.046 6.55249C269.046 6.37388 269.224 5.98689 269.224 5.80828C269.224 5.45106 269.224 5.24268 269.046 4.88546C268.867 4.70685 268.48 4.70685 268.123 4.70685H262.05C262.05 3.96264 261.871 3.42681 261.484 3.21843C261.306 2.86121 261.127 2.86121 260.74 2.86121C260.175 2.86121 259.996 2.86121 259.817 3.21843C259.639 3.39704 259.46 3.96264 259.46 4.70685H251.155C251.155 3.78403 251.155 3.21843 250.798 2.86121C250.619 2.6826 250.232 2.6826 249.875 2.6826C249.518 2.6826 249.131 2.6826 248.952 2.86121C248.773 3.21843 248.595 3.78403 248.595 4.70685H242.522C241.956 4.70685 241.599 5.27245 241.599 5.45106L241.242 6.01666C241.063 6.37388 241.242 6.76086 241.421 6.93947C241.599 7.29669 241.778 6.93947 242.165 6.93947L242.135 6.90971Z" fill="#333333"/>
<path d="M275.327 7.47525H277.917C279.584 7.47525 281.43 7.47525 283.454 7.29664C282.352 8.78506 281.43 10.0651 280.507 11.1665C279.167 10.3926 278.155 9.91626 277.381 9.67811C276.786 9.46973 276.399 9.38043 276.25 9.52927C275.684 9.70788 275.506 9.88649 275.506 10.2735C275.327 10.6307 275.327 11.0177 275.506 11.1963C275.684 11.3749 275.863 11.7619 276.428 11.9405C278.453 13.0419 280.685 14.3517 282.888 15.8104C283.245 15.989 283.632 15.989 283.99 15.989C284.347 15.989 284.555 15.8104 284.912 15.4234V14.5006C284.734 14.1434 283.99 13.5778 282.501 12.4763C285.091 9.70788 286.371 7.86224 286.55 7.11803C287.472 7.11803 288.217 6.93942 289.14 6.93942C290.241 6.87989 291.253 6.82035 292.265 6.73105C293.932 6.61197 295.45 6.43336 296.701 6.22498C297.058 6.04637 297.623 6.04637 298.189 5.86776C298.546 5.86776 298.933 5.68915 298.933 5.30217C299.112 5.12355 299.112 4.73657 299.112 4.37935C298.933 4.20074 298.755 3.81375 298.546 3.63514C298.189 3.63514 297.802 3.45653 297.445 3.45653C297.117 3.54583 296.76 3.60537 296.373 3.69467C294.022 4.05189 291.164 4.37935 287.294 4.55796C285.24 4.73657 283.305 4.85564 281.43 4.94494C280.685 4.94494 280.001 5.00448 279.286 5.03425C277.947 5.09379 276.637 5.12355 275.476 5.12355C274.91 5.12355 274.553 5.30216 274.553 5.48077C274.196 5.65938 274.196 5.838 274.196 6.22498C274.196 6.79058 274.196 6.96919 274.374 7.1478C274.553 7.32641 274.94 7.50502 275.297 7.50502L275.327 7.47525Z" fill="#333333"/>
<path d="M364.989 27.0332H353.916V25.1876H362.578C362.757 25.1876 363.144 25.1876 363.322 24.8303C363.322 24.6517 363.501 24.4731 363.501 24.0861C363.501 23.9075 363.501 23.5205 363.322 23.1633C363.144 23.1633 362.757 23.1633 362.578 22.9847H353.916V21.1391H363.68C364.037 21.1391 364.245 21.1391 364.424 20.9604C364.602 20.6032 364.602 20.3949 364.781 20.2162C364.781 19.859 364.602 19.472 364.424 19.2934C364.245 19.1148 364.067 19.1148 363.68 18.9362H341.532C340.966 18.9362 340.609 19.1148 340.609 19.2934C340.431 19.6506 340.252 19.859 340.252 20.2162C340.252 20.5735 340.431 20.7818 340.609 20.9604C340.788 21.1391 340.966 21.1391 341.532 21.1391H351.296V27.0332H346.682V23.3419C346.682 22.9847 346.682 22.5977 346.325 22.4191C346.146 22.2405 345.759 22.0619 345.402 22.0619C345.045 22.0619 344.658 22.2405 344.479 22.4191C344.3 22.5977 344.3 22.9847 344.3 23.3419V27.0332H340.044C339.686 27.0332 339.299 27.0332 339.121 27.3904C338.942 27.569 338.942 27.7476 338.942 28.1346C338.942 28.3132 338.942 28.7002 339.121 28.8788C339.299 29.0574 339.686 29.236 340.044 29.236H364.96C365.317 29.236 365.525 29.0574 365.704 28.8788C365.883 28.7002 365.883 28.3132 365.883 28.1346C365.883 27.7774 365.883 27.3904 365.704 27.2118C365.525 27.0332 365.347 27.0332 364.96 27.0332H364.989Z" fill="#333333"/>
<path d="M365.347 16.1378C363.679 15.5722 362.012 14.6494 360.732 13.7266C362.221 11.881 363.144 9.67812 363.858 7.26688H364.959C365.317 7.26688 365.525 7.08827 365.704 6.90966C365.882 6.73105 365.882 6.34407 365.882 6.16546C365.882 5.80824 365.882 5.59986 365.704 5.24264C365.525 5.24264 365.346 5.06403 364.959 5.06403H357.22C357.22 4.31982 357.22 3.9626 357.041 3.57561C356.863 3.397 356.684 3.21839 356.297 3.21839C355.91 3.21839 355.731 3.21839 355.374 3.397C355.195 3.57561 355.017 3.9626 354.808 4.31982C354.451 6.16546 353.707 8.01109 352.397 9.85673C352.219 9.85673 352.219 10.0353 352.219 10.2139V9.29113C352.219 8.93391 352.04 8.54692 351.653 8.36831C351.474 8.01109 351.087 7.80271 350.552 7.80271H347.039V6.8799H352.189C352.367 6.8799 352.546 6.70129 352.933 6.52268C353.112 6.34407 353.112 6.16546 353.112 5.95708C353.112 5.59986 352.933 5.39148 352.933 5.03426C352.576 5.03426 352.367 5.03426 352.189 4.85565H347.039C347.039 3.93283 346.86 3.57561 346.682 3.36723C346.503 3.18862 346.116 3.01001 345.759 3.18862C345.402 3.18862 345.193 3.18862 344.836 3.36723C344.836 3.54584 344.657 4.11144 344.657 4.85565H339.686C339.329 4.85565 339.121 5.03426 338.942 5.03426C338.763 5.39148 338.585 5.59986 338.763 5.95708C338.763 6.13569 338.763 6.3143 338.942 6.52268C339.121 6.70129 339.299 6.8799 339.686 6.8799H344.657V7.80271H340.609C340.252 7.80271 339.865 7.98132 339.686 8.36831C339.329 8.54692 339.121 8.93391 339.329 9.29113V11.494C339.329 11.8512 339.329 12.2382 339.686 12.5954C339.865 12.9526 340.252 12.9526 340.609 12.9526H344.122C343.764 13.3099 343.377 13.5182 343.02 13.8755C342.097 14.6197 340.817 15.3639 339.508 15.8997C339.15 16.0783 338.942 16.2569 338.763 16.4653C338.585 16.6439 338.585 17.0309 338.763 17.2095C338.942 17.5667 339.121 17.9537 339.329 17.9537C339.895 18.1323 341.175 17.5965 343.02 16.4653C343.586 16.1081 344.122 15.7211 344.687 15.1853C344.687 16.8523 344.866 17.9537 345.044 18.1323C345.044 18.3109 345.402 18.3109 345.789 18.3109C346.176 18.3109 346.533 18.3109 346.711 18.1323C346.89 17.7751 347.069 17.5667 347.069 17.2095V15.0066C347.545 15.4829 347.902 15.6913 348.379 15.989C348.527 16.1081 348.676 16.1974 348.825 16.3165C349.212 16.6141 349.539 16.8821 349.837 17.0309C350.194 17.2095 350.581 17.3881 350.76 17.2095C351.117 17.2095 351.326 17.2095 351.504 17.0309C351.683 16.6737 351.861 16.2867 351.683 16.1081C351.683 15.7509 351.504 15.5425 351.326 15.3639C350.73 14.9769 350.046 14.5899 349.272 14.1731C349.033 14.0243 348.825 13.8755 348.557 13.7266C348.379 13.6671 348.23 13.6075 348.081 13.5182C347.753 13.3396 347.426 13.161 347.098 12.9824H350.611C351.177 12.9824 351.534 12.8038 351.713 12.6252C352.07 12.268 352.278 11.881 352.278 11.5238V10.9582C352.278 11.1368 352.457 11.3154 352.635 11.5238C352.993 11.7024 353.201 11.7024 353.558 11.7024C353.915 11.7024 354.481 11.1368 355.225 10.0353C355.969 11.5238 356.714 12.6252 357.636 13.7266C356.535 14.4708 355.047 15.3936 353.022 16.1378C352.665 16.3165 352.278 16.4951 352.278 16.7034C352.1 17.0607 352.1 17.4477 352.278 17.6263C352.278 17.9835 352.457 18.1919 352.844 18.3705C353.409 18.5491 354.511 18.1919 356.356 17.269C357.279 16.7034 358.381 16.1676 359.304 15.4234C360.792 16.5248 362.638 17.6263 364.662 18.3705C365.019 18.5491 365.406 18.5491 365.763 18.3705C365.942 18.1919 366.12 18.0133 366.329 17.8049V16.8821C366.15 16.5248 365.763 16.3165 365.406 16.1378H365.347ZM344.687 11.1665H342.276C342.097 11.1665 341.919 11.1665 341.71 10.9879C341.562 10.8391 341.532 10.6902 341.532 10.5414C341.532 10.5712 341.532 10.6009 341.532 10.6307V10.4521C341.532 10.4521 341.532 10.5116 341.532 10.5414C341.532 10.3926 341.532 10.2437 341.71 10.0651C341.71 9.8865 341.889 9.70789 342.276 9.8865H344.687V11.1665ZM350.046 10.6009V10.5414C350.046 10.8093 350.046 10.9879 349.867 10.9879C349.688 11.1665 349.51 11.1665 349.301 11.1665H347.098V9.8865H349.301C349.48 9.8865 349.659 9.8865 349.867 10.0651C350.016 10.2139 350.046 10.3926 350.046 10.5414C350.046 10.5116 350.046 10.4819 350.046 10.4223V10.6009ZM359.095 12.0894C358.887 11.7917 358.738 11.5238 358.589 11.2856C358.44 11.0475 358.291 10.8391 358.172 10.6307C357.607 9.70789 357.071 8.60646 356.505 7.29665H361.298C360.941 9.14229 360.197 10.8093 359.095 12.0894Z" fill="#333333"/>
<path d="M332.899 8.21943C333.257 8.21943 333.465 8.04082 333.822 7.86221C333.822 7.50499 334.001 7.29661 334.001 6.93939C334.001 6.76078 334.001 6.37379 333.822 6.01657C333.465 6.01657 333.257 6.01657 332.899 5.83796H326.261V3.99233C326.261 3.63511 326.082 3.24812 325.904 3.06951C325.547 2.8909 325.338 2.8909 324.981 2.8909C324.624 2.8909 324.237 2.8909 324.058 3.06951C323.88 3.42673 323.701 4.34955 323.701 5.83796H317.985C317.42 5.83796 317.063 6.01657 316.884 6.19518C316.884 6.28449 316.824 6.4631 316.795 6.61194C316.795 6.67148 316.765 6.70125 316.705 6.76078V7.50499C316.705 7.50499 316.795 7.53476 316.824 7.5943C316.854 7.71337 316.884 7.80267 316.884 7.89198C317.241 8.07059 317.45 8.2492 317.985 8.2492H322.957C321.855 10.4521 320.754 12.4763 319.623 14.5303L318.878 14.7089C318.521 14.7089 318.134 14.8875 317.956 15.0661C317.598 15.2448 317.598 15.6317 317.598 15.989C317.598 16.3462 317.777 16.7332 317.956 16.7332C318.134 17.0904 318.521 17.0904 319.057 17.0904L321.26 16.9118V18.7574C321.26 22.4487 319.98 25.3958 317.39 27.0628C317.211 27.2414 317.033 27.42 316.646 27.6284L316.467 27.807C316.11 27.807 315.902 27.9856 315.902 28.3726C315.902 28.7596 315.902 29.1168 316.08 29.2954C316.08 29.4145 316.11 29.5038 316.17 29.5633C316.259 29.7419 316.378 29.861 316.646 29.861H316.824C317.182 30.0396 317.926 29.6824 318.849 29.1168C321.796 26.7056 323.463 23.2227 323.641 18.7872V16.7629L326.588 16.4057V27.3009C326.588 27.8665 326.767 28.4024 327.154 28.7893C327.72 29.1466 328.255 29.3549 328.821 29.5336H333.435V27.1223H329.744C329.565 27.1223 329.387 27.1223 329.387 26.9437C329.268 26.8246 329.208 26.7056 329.208 26.5865V16.2569L331.232 16.0783C331.59 17.1797 331.977 17.9239 332.155 17.9239C332.512 18.1025 332.899 18.1025 333.257 18.1025C333.435 17.9239 333.822 17.7453 333.822 17.3583C334.001 17.1797 334.001 16.7927 333.822 16.4355C332.334 12.1786 331.054 9.97576 330.131 9.79715C329.774 9.61854 329.565 9.79715 329.387 9.97576C329.029 10.1544 328.821 10.333 328.821 10.72C328.642 10.8986 328.642 11.0772 329 11.4642C329.357 12.2084 329.744 12.9526 330.101 13.8754L322.361 14.441C323.85 12.0298 324.773 10.0055 325.487 8.36827H332.87L332.899 8.21943Z" fill="#333333"/>
<path d="M315.931 18.5491C316.11 18.7277 316.289 18.7277 316.676 18.7277C317.063 18.7277 317.241 18.5491 317.42 18.1621C317.985 17.8049 317.42 15.7508 316.318 12.6252C315.961 12.4466 315.753 12.0596 315.574 12.0596C315.217 11.881 314.83 11.881 314.651 12.0596C314.294 12.2382 314.086 12.4168 313.907 12.6252C313.728 12.8038 313.907 13.548 314.473 14.828L310.246 15.1852C312.448 12.9824 314.294 10.2139 315.961 7.44548C316.14 6.87988 316.14 6.70127 315.961 6.34405C315.782 6.16544 315.604 5.98683 315.395 5.77846C315.038 5.59985 314.651 5.59985 314.473 5.77846C314.294 5.77846 314.115 6.13568 313.907 6.34405C312.984 8.01108 312.061 9.29112 311.317 10.6009C310.573 10.0353 310.037 9.67811 309.472 9.11251C311.496 5.98683 312.597 4.1412 312.419 3.5756C312.24 3.39699 312.061 3.01 311.853 2.83139H310.93C310.573 2.83139 310.365 3.18861 310.186 3.39699C309.263 5.06402 308.519 6.52266 307.775 7.83247L307.596 7.65386H307.418C307.06 7.47525 306.673 7.29664 306.495 7.47525C306.138 7.65386 305.751 7.83247 305.751 8.04085C305.572 8.39807 305.572 8.78506 305.572 8.96367C305.751 9.32089 305.929 9.52926 306.316 9.70787C307.596 10.4521 308.727 11.3749 309.829 12.4763C308.906 13.548 308.132 14.4708 307.358 15.2746C307.15 15.4532 307.001 15.6615 306.882 15.8104H306.525C306.167 15.8104 305.78 15.989 305.602 16.376C305.423 16.5546 305.423 16.9416 305.423 17.1202C305.423 17.4774 305.602 17.8644 305.989 18.043C306.167 18.043 306.554 18.2216 306.912 18.043H307.656L310.424 17.6858V29.2954C310.424 29.474 310.603 29.861 310.781 30.0396C310.96 30.3969 311.347 30.3969 311.704 30.3969C312.061 30.3969 312.27 30.3969 312.627 30.0396C312.806 29.861 312.984 29.6824 312.984 29.2954V17.2988L315.187 17.1202C315.366 18.043 315.753 18.4002 315.931 18.6086V18.5491Z" fill="#333333"/>
<path d="M317.39 25.9317C317.39 25.7531 317.568 25.3661 317.568 25.0089L316.467 20.0375C316.288 19.8589 316.11 19.472 315.901 19.2933C315.544 19.2933 315.157 19.1147 314.979 19.1147C314.621 19.2933 314.413 19.472 314.234 19.6803C314.056 20.0375 314.056 20.4245 314.234 20.6031L315.157 25.5745C315.336 25.7531 315.514 26.1401 315.723 26.3187C316.08 26.4973 316.288 26.4973 316.646 26.4973C317.003 26.3187 317.211 26.1401 317.39 25.9317Z" fill="#333333"/>
<path d="M308.162 18.9064C307.983 18.9064 307.804 19.085 307.596 19.085L307.417 19.2636C307.239 19.4422 307.06 19.6209 307.06 20.0078C306.882 22.0321 306.495 24.4433 305.78 27.0034C305.602 27.569 305.602 27.9262 305.959 28.1048C305.959 28.2834 306.137 28.462 306.524 28.462C306.882 28.6407 307.269 28.6407 307.447 28.462L307.626 28.2834C307.626 28.2834 307.626 28.2537 307.656 28.2239C307.775 28.1048 307.864 27.956 307.983 27.7178C308.34 26.4378 308.549 25.128 308.906 23.4907C309.084 22.0023 309.263 20.9009 309.471 20.1567C309.471 19.7995 309.293 19.5911 309.114 19.2339C308.936 19.0553 308.549 18.8766 308.191 18.8766L308.162 18.9064Z" fill="#333333"/>
<path d="M281.251 20.752H280.328C279.971 20.752 279.584 20.9306 279.584 21.4962C278.512 23.1037 277.351 24.5028 276.012 25.7233C275.505 26.1698 274.97 26.6163 274.434 27.0331C273.69 27.3903 273.511 27.9559 274.077 28.7001C274.255 29.0573 274.642 29.2657 274.999 29.2657C275.178 29.2657 275.565 29.2657 275.922 28.9085C276.488 28.5513 277.202 27.9857 277.946 27.4201C279.227 26.1401 280.358 24.6516 281.638 22.6274V22.4488C281.816 22.2702 281.995 21.8832 281.816 21.526C281.816 21.1687 281.459 20.9604 281.251 20.7818V20.752Z" fill="#333333"/>
<path d="M387.137 3.12909H383.803C380.469 6.82036 376.063 9.58882 370.526 11.0475L372.193 13.9945C374.218 13.2503 375.885 12.5061 376.986 11.9703V14.1731H394.311V11.9703C395.413 12.7145 396.901 13.2503 398.747 13.9945L400.414 11.0475C394.877 9.38044 390.441 6.61198 387.137 3.12909ZM385.649 11.4345H377.909C380.856 9.76743 383.267 7.92179 385.47 5.54032L385.649 5.71894C387.494 7.74318 390.084 9.58882 393.388 11.4345H385.649Z" fill="#333333"/>
<path d="M374.397 17.507V27.271L374.576 28.551C374.814 28.9281 375.002 29.1762 375.141 29.2952L376.064 29.4738H395.979C396.158 29.4738 396.336 29.2952 396.336 29.1166L396.515 28.7594V17.507H374.367H374.397ZM393.389 27.0924H377.701V20.0968H393.389V27.0924Z" fill="#333333"/>
<path d="M277.5 43.108C277.5 43.6439 277.292 44.0904 276.905 44.3881C276.518 44.6857 275.952 44.8644 275.238 44.8644C274.94 44.8644 274.642 44.8644 274.315 44.8048C273.987 44.7453 273.72 44.6857 273.452 44.5964V43.1676C273.72 43.3462 274.017 43.495 274.315 43.6141C274.613 43.7332 274.94 43.7927 275.268 43.7927C275.565 43.7927 275.744 43.7332 275.863 43.6141C275.982 43.495 276.041 43.3759 276.041 43.1973C276.041 43.0783 276.012 42.989 275.952 42.8996C275.893 42.8103 275.803 42.721 275.714 42.6615C275.625 42.5722 275.476 42.5127 275.357 42.4234C275.208 42.3341 275.089 42.2745 274.94 42.1852C274.851 42.1257 274.761 42.0959 274.672 42.0364C274.583 41.9768 274.494 41.9471 274.404 41.8875C274.255 41.7982 274.136 41.7089 274.017 41.5898C273.898 41.5005 273.779 41.3815 273.69 41.2326C273.6 41.1135 273.511 40.9647 273.481 40.8159C273.422 40.667 273.392 40.4884 273.392 40.3098C273.392 40.0121 273.452 39.774 273.541 39.5656C273.66 39.3572 273.779 39.1786 273.987 39.0595C274.166 38.9107 274.404 38.8214 274.672 38.7619C274.94 38.7023 275.238 38.6725 275.565 38.6725C275.803 38.6725 276.071 38.6725 276.309 38.7023C276.577 38.7023 276.845 38.7916 277.113 38.8512V40.1312C276.845 40.0121 276.577 39.9228 276.339 39.8335C276.101 39.7442 275.833 39.7144 275.535 39.7144C275.327 39.7144 275.178 39.7442 275.059 39.8335C274.94 39.9228 274.881 40.0419 274.881 40.1907C274.881 40.28 274.91 40.3693 274.97 40.4289C275.029 40.5182 275.119 40.5777 275.208 40.6373C275.297 40.6968 275.416 40.7861 275.565 40.8456C275.684 40.9052 275.833 40.9945 275.982 41.054L276.428 41.2922C276.577 41.3815 276.726 41.5005 276.875 41.5898C277.024 41.7089 277.143 41.828 277.232 41.9768C277.322 42.1257 277.411 42.2745 277.47 42.4531C277.53 42.6317 277.56 42.8401 277.56 43.0485L277.5 43.108Z" fill="#333333"/>
<path d="M282.025 44.775V42.0959L280.149 38.7916H281.727L282.709 40.7861L283.721 38.7916H285.299L283.424 42.0959V44.775H282.054H282.025Z" fill="#333333"/>
<path d="M292.325 43.108C292.325 43.6438 292.116 44.0904 291.729 44.388C291.342 44.6857 290.777 44.8643 290.062 44.8643C289.765 44.8643 289.467 44.8643 289.14 44.8048C288.812 44.7453 288.544 44.6857 288.276 44.5964V43.1675C288.544 43.3461 288.842 43.495 289.14 43.6141C289.437 43.7331 289.765 43.7927 290.092 43.7927C290.39 43.7927 290.569 43.7331 290.688 43.6141C290.807 43.495 290.866 43.3759 290.866 43.1973C290.866 43.0782 290.836 42.9889 290.777 42.8996C290.717 42.8103 290.628 42.721 290.539 42.6615C290.449 42.5722 290.301 42.5126 290.182 42.4233C290.033 42.334 289.914 42.2745 289.765 42.1852C289.675 42.1256 289.586 42.0959 289.497 42.0363C289.408 41.9768 289.318 41.947 289.229 41.8875C289.08 41.7982 288.961 41.7089 288.842 41.5898C288.723 41.5005 288.604 41.3814 288.514 41.2326C288.425 41.1135 288.336 40.9647 288.306 40.8158C288.247 40.667 288.217 40.4884 288.217 40.3098C288.217 40.0121 288.276 39.7739 288.366 39.5656C288.485 39.3572 288.604 39.1786 288.812 39.0595C288.991 38.9107 289.229 38.8214 289.497 38.7618C289.765 38.7023 290.062 38.6725 290.39 38.6725C290.628 38.6725 290.896 38.6725 291.134 38.7023C291.402 38.7023 291.67 38.7916 291.938 38.8511V40.1312C291.67 40.0121 291.402 39.9228 291.164 39.8335C290.926 39.7442 290.658 39.7144 290.36 39.7144C290.152 39.7144 290.003 39.7442 289.884 39.8335C289.765 39.9228 289.705 40.0419 289.705 40.1907C289.705 40.28 289.735 40.3693 289.795 40.4288C289.854 40.5182 289.943 40.5777 290.033 40.6372C290.122 40.6968 290.241 40.7861 290.39 40.8456C290.509 40.9051 290.658 40.9944 290.807 41.054L291.253 41.2921C291.402 41.3814 291.551 41.5005 291.7 41.5898C291.849 41.6791 291.968 41.828 292.057 41.9768C292.146 42.1256 292.236 42.2745 292.295 42.4531C292.355 42.6317 292.384 42.8401 292.384 43.0485L292.325 43.108Z" fill="#333333"/>
<path d="M296.789 44.7749V39.8631H295.36V38.7915H299.647V39.8631H298.188V44.7749H296.819H296.789Z" fill="#333333"/>
<path d="M302.893 44.775V38.7916H306.495V39.8633H304.262V41.1731H306.346V42.2447H304.262V43.6736H306.554V44.7453H302.893V44.775Z" fill="#333333"/>
<path d="M315.246 44.775V40.6968L313.996 44.775H312.597L311.347 40.6968V44.775H310.096V38.7916H312.002L313.311 43.108L314.621 38.7916H316.497V44.775H315.246Z" fill="#333333"/>
<path d="M322.867 44.775V38.7916H324.237V44.775H322.867Z" fill="#333333"/>
<path d="M331.142 44.775L329.237 40.9051H329.207V44.775H327.898V38.7916H329.684L331.589 42.7508H331.619V38.7916H332.929V44.775H331.142Z" fill="#333333"/>
<path d="M337.632 44.775V39.8633H336.203V38.7916H340.49V39.8633H339.031V44.775H337.662H337.632Z" fill="#333333"/>
<path d="M343.734 44.7749V38.7915H347.336V39.8631H345.103V41.1729H347.187V42.2446H345.103V43.6735H347.395V44.7451H343.734V44.7749Z" fill="#333333"/>
<path d="M354.094 42.3638H353.201V41.2921H355.463V44.2987C355.285 44.4178 355.136 44.5071 354.957 44.5964C354.778 44.6857 354.6 44.7453 354.451 44.775C354.272 44.8048 354.124 44.8346 353.945 44.8643C353.796 44.8643 353.618 44.8643 353.498 44.8643C352.576 44.8643 351.891 44.5964 351.415 44.0606C350.938 43.5248 350.73 42.7508 350.73 41.7684C350.73 41.3219 350.79 40.9051 350.879 40.5182C350.968 40.1312 351.117 39.8037 351.325 39.5358C351.534 39.2679 351.802 39.0595 352.129 38.9107C352.457 38.7618 352.844 38.6725 353.29 38.6725C353.647 38.6725 353.975 38.7321 354.243 38.8214C354.511 38.9107 354.719 39.0595 354.927 39.2083C355.106 39.387 355.225 39.5953 355.314 39.8335C355.404 40.0716 355.433 40.3395 355.433 40.6372H353.945C353.945 40.3991 353.885 40.1907 353.766 40.0419C353.647 39.893 353.469 39.8037 353.231 39.8037C353.022 39.8037 352.844 39.8632 352.724 39.9526C352.605 40.0716 352.486 40.1907 352.427 40.3991C352.367 40.5777 352.308 40.7861 352.278 41.0242C352.278 41.2624 352.248 41.5005 352.248 41.7684C352.248 42.0363 352.248 42.2745 352.308 42.5126C352.367 42.7508 352.427 42.9592 352.516 43.1378C352.605 43.3164 352.754 43.4652 352.903 43.5545C353.052 43.6736 353.231 43.7034 353.469 43.7034C353.558 43.7034 353.677 43.7034 353.796 43.6736C353.915 43.6736 354.004 43.6141 354.094 43.5545V42.3638Z" fill="#333333"/>
<path d="M361.923 44.775L361.656 43.495C361.596 43.2866 361.566 43.108 361.536 42.9591C361.507 42.8103 361.447 42.6912 361.388 42.6317C361.328 42.5424 361.239 42.4829 361.12 42.4531C361.001 42.4233 360.852 42.3936 360.643 42.3936H360.435V44.8048H359.066V38.8214H361.12C361.417 38.8214 361.656 38.8213 361.923 38.9107C362.162 38.9702 362.4 39.0595 362.578 39.1786C362.757 39.2976 362.906 39.4763 363.025 39.6549C363.144 39.8632 363.174 40.1014 363.174 40.3991C363.174 40.7861 363.084 41.1135 362.876 41.3814C362.668 41.6196 362.4 41.7684 362.043 41.8577C362.191 41.9173 362.34 41.9768 362.459 42.0363C362.578 42.0959 362.668 42.1852 362.757 42.3042C362.846 42.4233 362.906 42.5424 362.965 42.6912C363.025 42.8401 363.055 43.0187 363.114 43.2271L363.471 44.8643H361.983L361.923 44.775ZM360.673 41.3814C361.03 41.3814 361.269 41.3219 361.447 41.173C361.596 41.0242 361.685 40.8158 361.685 40.5479C361.685 40.3395 361.626 40.1609 361.507 40.0121C361.388 39.8632 361.209 39.8037 360.911 39.8037H360.405V41.3814H360.673Z" fill="#333333"/>
<path d="M370.407 44.775L369.99 43.4057H368.085L367.698 44.775H366.269L368.263 38.7916H369.841L371.835 44.775H370.407ZM369.067 40.1907L368.442 42.3043H369.692L369.067 40.1907Z" fill="#333333"/>
<path d="M375.675 44.7749V39.8631H374.246V38.7915H378.533V39.8631H377.074V44.7749H375.705H375.675Z" fill="#333333"/>
<path d="M381.778 44.775V38.7916H383.148V44.775H381.778Z" fill="#333333"/>
<path d="M389.161 44.8643C388.685 44.8643 388.268 44.775 387.941 44.6262C387.613 44.4773 387.346 44.269 387.137 44.001C386.929 43.7331 386.78 43.4057 386.691 43.0187C386.601 42.6317 386.572 42.2149 386.572 41.7684C386.572 41.3219 386.601 40.9051 386.691 40.5182C386.78 40.1312 386.929 39.8037 387.137 39.5358C387.346 39.2679 387.613 39.0595 387.941 38.9107C388.268 38.7618 388.685 38.6725 389.161 38.6725C389.638 38.6725 390.054 38.7618 390.382 38.9107C390.709 39.0595 390.977 39.2679 391.186 39.5358C391.394 39.8037 391.543 40.1312 391.632 40.5182C391.721 40.9051 391.751 41.3219 391.751 41.7684C391.751 42.2149 391.721 42.6317 391.632 43.0187C391.543 43.4057 391.394 43.7331 391.186 44.001C390.977 44.269 390.709 44.4773 390.382 44.6262C390.054 44.775 389.638 44.8643 389.161 44.8643ZM389.161 43.7331C389.37 43.7331 389.548 43.6736 389.697 43.5843C389.846 43.495 389.935 43.3461 390.025 43.1675C390.084 42.9889 390.144 42.7805 390.174 42.5424C390.174 42.3043 390.203 42.0363 390.203 41.7684C390.203 41.5005 390.203 41.2326 390.144 40.9944C390.114 40.7563 390.054 40.5479 389.965 40.3693C389.876 40.1907 389.787 40.0716 389.638 39.9526C389.489 39.8632 389.34 39.8037 389.132 39.8037C388.923 39.8037 388.774 39.8632 388.626 39.9526C388.477 40.0419 388.387 40.1907 388.298 40.3693C388.209 40.5479 388.179 40.7563 388.12 40.9944C388.09 41.2326 388.06 41.5005 388.06 41.7684C388.06 42.0363 388.06 42.3043 388.09 42.5424C388.09 42.7805 388.179 42.9889 388.239 43.1675C388.328 43.3461 388.417 43.4652 388.566 43.5843C388.715 43.6736 388.893 43.7331 389.102 43.7331H389.161Z" fill="#333333"/>
<path d="M398.419 44.775L396.514 40.9051H396.484V44.775H395.174V38.7916H396.96L398.866 42.7508H398.895V38.7916H400.205V44.775H398.419Z" fill="#333333"/>
<path d="M214.391 44.4178C214.153 44.5666 213.885 44.6857 213.647 44.7453C213.379 44.8346 213.111 44.8643 212.813 44.8643C211.95 44.8643 211.295 44.5964 210.789 44.0308C210.283 43.4652 210.045 42.721 210.045 41.7684C210.045 40.8158 210.283 40.0716 210.789 39.506C211.295 38.9404 211.95 38.6725 212.813 38.6725C213.111 38.6725 213.379 38.7023 213.647 38.7916C213.915 38.8511 214.153 38.9702 214.391 39.119V40.3395C214.153 40.1312 213.915 40.0121 213.677 39.9228C213.439 39.8335 213.2 39.7739 212.932 39.7739C212.456 39.7739 212.099 39.9526 211.831 40.3098C211.563 40.667 211.414 41.1433 211.414 41.7684C211.414 42.3936 211.533 42.8698 211.831 43.2271C212.099 43.5843 212.456 43.7629 212.932 43.7629C213.2 43.7629 213.439 43.7034 213.677 43.6141C213.915 43.5248 214.153 43.3759 214.391 43.1973V44.4178Z" fill="#333333"/>
<path d="M216.951 38.7916H218.261V41.054H220.196V38.7916H221.506V44.7453H220.196V42.215H218.261V44.7453H216.951V38.7916Z" fill="#333333"/>
<path d="M224.274 38.7916H225.584V42.3638C225.584 42.8699 225.644 43.1973 225.792 43.4057C225.941 43.6141 226.15 43.7331 226.477 43.7331C226.804 43.7331 227.013 43.6141 227.162 43.4057C227.311 43.1973 227.37 42.8401 227.37 42.3638V38.7916H228.68V42.3638C228.68 43.1973 228.501 43.8224 228.144 44.2392C227.787 44.656 227.221 44.8643 226.477 44.8643C225.733 44.8643 225.197 44.656 224.81 44.2392C224.453 43.8224 224.274 43.1973 224.274 42.3638V38.7916Z" fill="#333333"/>
<path d="M231.448 38.7916H232.907L234.753 42.8699V38.7916H236.003V44.7453H234.544L232.699 40.667V44.7453H231.448V38.7916Z" fill="#333333"/>
<path d="M243.385 44.2988C243.058 44.4774 242.701 44.6262 242.373 44.7155C242.016 44.8048 241.659 44.8644 241.272 44.8644C240.409 44.8644 239.754 44.5964 239.248 44.0308C238.742 43.4652 238.503 42.721 238.503 41.7685C238.503 40.8159 238.742 40.0419 239.248 39.5061C239.754 38.9405 240.438 38.6725 241.331 38.6725C241.659 38.6725 241.986 38.7023 242.314 38.7916C242.611 38.8512 242.909 38.9702 243.207 39.1191V40.3396C242.909 40.161 242.641 40.0121 242.344 39.9228C242.076 39.8335 241.778 39.774 241.51 39.774C240.974 39.774 240.587 39.9526 240.29 40.28C239.992 40.6373 239.873 41.1135 239.873 41.7387C239.873 42.3638 240.022 42.8699 240.29 43.1973C240.557 43.5546 240.944 43.7034 241.45 43.7034C241.599 43.7034 241.718 43.7034 241.837 43.6736C241.957 43.6736 242.046 43.6141 242.165 43.5843V42.4234H241.361V41.3815H243.415V44.2392L243.385 44.2988Z" fill="#333333"/>
<path d="M246.005 38.7916H247.315V41.054H249.25V38.7916H250.56V44.7453H249.25V42.215H247.315V44.7453H246.005V38.7916Z" fill="#333333"/>
<path d="M252.911 38.7916H254.162L255.055 43.1378L255.918 38.7916H257.198L258.061 43.1378L258.954 38.7916H260.205L259.014 44.7453H257.496L256.573 40.2205L255.65 44.7453H254.132L252.911 38.7916Z" fill="#333333"/>
<path d="M265.295 43.6736H263.241L262.914 44.7453H261.604L263.509 38.7916H265.087L266.992 44.7453H265.652L265.325 43.6736H265.295ZM263.568 42.5722H264.968L264.283 40.1907L263.568 42.5722Z" fill="#333333"/>
<path d="M400.205 34.3561H210.045V35.398H400.205V34.3561Z" fill="#333333"/>
<g clip-path="url(#clip0_208_2857)">
<path fill-rule="evenodd" clip-rule="evenodd" d="M170.386 12.3209C167.533 12.3209 162.542 16.5997 162.542 19.4522V47.37L182.245 47.3172C184.622 47.3172 189.773 43.3025 189.773 40.2387V12.3209H170.386Z" fill="url(#paint0_linear_208_2857)"/>
<path fill-rule="evenodd" clip-rule="evenodd" d="M162.542 1.06926C162.542 4.05385 167.692 8.27982 170.386 8.27982H189.773C189.852 5.26882 184.569 1.06926 182.324 1.09567H162.542V1.06926Z" fill="#E88511"/>
<path fill-rule="evenodd" clip-rule="evenodd" d="M63.4425 1.04285C66.4799 1.04285 70.9172 5.69141 70.9172 8.17417L28.7895 8.2534C26.3596 8.2534 24.0089 9.70608 24.0089 13.2189V35.0883C24.0089 38.6011 25.9898 40.001 28.8687 40.001H68.2231C81.8255 36.4353 93.4997 14.5659 106.098 4.68774C107.393 3.65766 112.464 0.990021 119.648 0.990021L157.286 1.12208C157.101 4.26515 152.478 8.20058 149.441 8.2534H135.997C133.382 8.2534 129.104 9.9702 127.36 11.5549C119.04 19.1353 108.845 36.5146 94.9524 45.5212C93.1035 46.4456 90.1454 47.1851 86.6589 47.1851C60.8277 47.37 9.56131 47.1851 9.56131 47.1851C4.6222 47.1851 -0.0263672 44.1741 -0.0263672 40.001V8.22699C4.51505e-05 5.92912 3.46006 1.06926 9.58772 1.06926H63.4425V1.04285Z" fill="url(#paint1_linear_208_2857)"/>
</g>
<defs>
<linearGradient id="paint0_linear_208_2857" x1="176.17" y1="12.3209" x2="176.17" y2="47.37" gradientUnits="userSpaceOnUse">
<stop stop-color="#00A0E9"/>
<stop offset="0.36" stop-color="#256DAE"/>
<stop offset="0.65" stop-color="#004A98"/>
<stop offset="0.7" stop-color="#004A98"/>
<stop offset="1" stop-color="#004A98"/>
</linearGradient>
<linearGradient id="paint1_linear_208_2857" x1="157.312" y1="24.1272" x2="3.70909e-05" y2="24.1272" gradientUnits="userSpaceOnUse">
<stop stop-color="#00A0E9"/>
<stop offset="0.42" stop-color="#1669AB"/>
<stop offset="0.71" stop-color="#004E9A"/>
<stop offset="1" stop-color="#004A98"/>
</linearGradient>
<clipPath id="clip0_208_2857">
<rect width="189.773" height="46.38" fill="white" transform="translate(0 0.990021)"/>
</clipPath>
</defs>
</svg>
